<svg width="1440" height="57" viewBox="0 0 1440 57" fill="none" xmlns="http://www.w3.org/2000/svg">
<path d="M0 24.5165C63.662 35.6617 122.817 43.1736 250.704 32.3597C378.592 21.5458 475.31 -1.33834e-05 600 0C724.69 1.33834e-05 984.225 26.4161 1135.77 32.3597C1287.32 38.3033 1440 0 1440 0V56.1343H0V24.5165Z" fill="white" fill-opacity="0.2"/>
<path d="M0 33.0906C63.662 41.2134 122.817 46.6881 250.704 38.8068C378.592 30.9255 475.31 15.2226 600 15.2227C724.69 15.2227 984.225 34.475 1135.77 38.8068C1287.32 43.1386 1440 15.2227 1440 15.2227V56.1341H0V33.0906Z" fill="white" fill-opacity="0.3"/>
<path d="M0 41.6652C63.662 46.7656 122.817 50.2032 250.704 45.2545C378.592 40.3057 475.31 30.4458 600 30.4458C724.69 30.4458 984.225 42.5345 1135.77 45.2545C1287.32 47.9744 1440 30.4458 1440 30.4458V56.1344H0V41.6652Z" fill="white"/>
</svg>
